<?xml version="1.0" encoding="UTF-8" standalone="no"?>
<!-- Generator: Adobe Illustrator 16.0.0, SVG Export Plug-In . SVG Version: 6.00 Build 0)  -->

<svg xmlns:dc="http://purl.org/dc/elements/1.1/" xmlns:cc="http://creativecommons.org/ns#" xmlns:rdf="http://www.w3.org/1999/02/22-rdf-syntax-ns#" xmlns:svg="http://www.w3.org/2000/svg" xmlns="http://www.w3.org/2000/svg" xmlns:sodipodi="http://sodipodi.sourceforge.net/DTD/sodipodi-0.dtd" xmlns:inkscape="http://www.inkscape.org/namespaces/inkscape" version="1.1" id="Ebene_1" x="0px" y="0px" width="50mm" height="50mm" viewBox="0 0 177.16536 177.16535" enable-background="new 0 0 288 151.2" xml:space="preserve" inkscape:version="0.91 r13725" sodipodi:docname="gsm_breadboard.svg"><metadata id="metadata88472"><rdf:RDF><cc:Work rdf:about=""><dc:format>image/svg+xml</dc:format><dc:type rdf:resource="http://purl.org/dc/dcmitype/StillImage" /><dc:title /></cc:Work></rdf:RDF></metadata><defs id="defs88470" /><sodipodi:namedview pagecolor="#ffffff" bordercolor="#666666" borderopacity="1" objecttolerance="10" gridtolerance="10" guidetolerance="10" inkscape:pageopacity="0" inkscape:pageshadow="2" inkscape:window-width="1887" inkscape:window-height="1058" id="namedview88468" showgrid="false" inkscape:zoom="3.2998316" inkscape:cx="167.24536" inkscape:cy="87.148119" inkscape:window-x="0" inkscape:window-y="0" inkscape:window-maximized="1" inkscape:current-layer="Ebene_1" units="mm" /><desc id="desc86413">Fritzing breadboard generated by brd2svg</desc><g transform="matrix(-0.1126125,0,0,-0.1125,122.57245,10.725822)" id="g117983"><g id="g117985"><g id="g117987"><g id="g117989"><polygon points="66.8611,242.431 82.8472,242.431 82.8472,195.597 66.8611,195.597 " id="polygon117991" style="fill:#b7b7b7" /><polygon points="145.528,242.431 161.472,242.431 161.472,195.597 145.528,195.597 " id="polygon117993" style="fill:#b7b7b7" /></g></g><rect width="228.319" x="0.0138889" height="231.944" id="rect117995" y="0" style="fill:#e8e8e8" /><g id="g117997"><rect width="32.083302" x="0.0138889" y="231.944" height="70.083298" id="rect117999" style="fill:#e8e8e8" /></g><g id="g118001"><rect width="32.097198" x="196.25" y="231.944" height="70.083298" id="rect118003" style="fill:#e8e8e8" /></g><rect width="32.083302" x="196.25" y="231.944" height="3" id="rect118005" style="opacity:0.4;fill:#c1c1c1" /><rect width="32.083302" x="0.0138889" y="231.944" height="3" id="rect118007" style="opacity:0.4;fill:#c1c1c1" /><rect width="18.319401" x="105.014" height="186.694" id="rect118009" y="0" style="fill:#b7b7b7" /></g></g><rect style="opacity:0.98999999;fill:#0f7391;fill-opacity:1;fill-rule:nonzero;stroke:#c3c3c3;stroke-width:0;stroke-linecap:butt;stroke-linejoin:miter;stroke-miterlimit:4;stroke-dasharray:none;stroke-dashoffset:0;stroke-opacity:1" id="rect92691" width="177.16531" height="177.16531" x="4.9999999e-06" y="2.7980612e-05" /><rect x="90.470566" y="75.143127" width="82.612236" height="82.613251" id="rect87269" style="fill:#cccccc" /><rect x="90.470566" y="75.143127" width="82.612236" height="82.613251" id="rect87271" style="fill:#cccccc" /><rect x="94.45224" y="79.124802" width="74.64888" height="74.649887" id="rect87273" style="fill:#f2f2f2" /><g id="g87553" transform="matrix(0,1.25,-1.25,0,95.85695,57.4834)"><rect style="opacity:0.5" id="rect87555" height="46.208" width="13.42" enable-background="new    " y="25.667" x="36.733002" /><path style="opacity:0.5" inkscape:connector-curvature="0" id="path87557" d="m 36.733,58.11 c 0,1.285 -1.595,2.336 -3.543,2.336 l -1.525,0 c -1.949,0 -3.543,-1.051 -3.543,-2.336 l 0,2.901 c 0,1.285 1.595,2.336 3.543,2.336 l 1.525,0 c 1.949,0 3.543,-1.051 3.543,-2.336 l 0,-2.901 z" enable-background="new    " /><rect style="opacity:0.35;fill:#2b2b2b" id="rect87559" height="5.283" width="10.01" enable-background="new    " y="57.155998" x="68.515999" /><rect style="opacity:0.35;fill:#2b2b2b" id="rect87561" height="27.135" width="54.936001" enable-background="new    " y="29.440001" x="23.188" /><rect style="fill:#f3cc7d" id="rect87563" height="3.5050001" width="10.01" y="51.030998" x="68.515999" /><rect style="fill:#f3cc7d" id="rect87565" height="3.5050001" width="10.01" y="43.994999" x="68.515999" /><rect style="fill:#f3cc7d" id="rect87567" height="3.5050001" width="10.01" y="36.959" x="68.515999" /><g id="g87569"><g id="g87571"><path style="fill:#3d3d3d" inkscape:connector-curvature="0" id="path87573" d="m 26.216,57.631 l 14.378,0 l 0,-24.73 l -14.378,0 l 0,24.73 z m 11.522,-6.6 l 0,3.505 l -10.01,0 l 0,-3.505 l 10.01,0 z m 0,-7.036 l 0,3.505 l -10.01,0 l 0,-3.505 l 10.01,0 z m 0,-7.036 l 0,3.505 l -10.01,0 l 0,-3.505 l 10.01,0 z" /></g></g><g id="g87575"><g id="g87577"><rect style="fill:#f3cc7d" id="rect87579" height="2.8469999" width="4.533" y="51.362" x="27.721001" /><rect style="fill:#80581e" id="rect87581" height="2.8469999" width="0.95899999" y="51.362" x="31.295" /><rect style="fill:#f3cc7d" id="rect87583" height="2.8469999" width="4.5339999" y="51.361" x="32.733002" /><rect style="fill:#80581e" id="rect87585" height="2.8469999" width="0.95899999" y="51.361" x="32.733002" /><rect style="fill:#533a14" id="rect87587" height="2.8469999" width="0.479" y="51.362" x="32.254002" /></g></g><g id="g87589"><g id="g87591"><rect style="fill:#f3cc7d" id="rect87593" height="2.8469999" width="4.533" y="44.326" x="27.721001" /><rect style="fill:#80581e" id="rect87595" height="2.8469999" width="0.95899999" y="44.326" x="31.295" /><rect style="fill:#f3cc7d" id="rect87597" height="2.8469999" width="4.5339999" y="44.325001" x="32.733002" /><rect style="fill:#80581e" id="rect87599" height="2.8469999" width="0.95899999" y="44.325001" x="32.733002" /><rect style="fill:#533a14" id="rect87601" height="2.8469999" width="0.479" y="44.326" x="32.254002" /></g></g><g id="g87603"><g id="g87605"><rect style="fill:#f3cc7d" id="rect87607" height="2.8469999" width="4.533" y="37.291" x="27.721001" /><rect style="fill:#80581e" id="rect87609" height="2.8469999" width="0.95899999" y="37.291" x="31.295" /><rect style="fill:#f3cc7d" id="rect87611" height="2.8469999" width="4.5339999" y="37.290001" x="32.733002" /><rect style="fill:#80581e" id="rect87613" height="2.8469999" width="0.95899999" y="37.290001" x="32.733002" /><rect style="fill:#533a14" id="rect87615" height="2.8469999" width="0.479" y="37.291" x="32.254002" /></g></g><g id="g87617"><g id="g87619"><rect style="fill:#f3cc7d" id="rect87621" height="2.8469999" width="7.1989999" y="51.362" x="56.883999" /><rect style="fill:#80581e" id="rect87623" height="2.8469999" width="0.95899999" y="51.362" x="63.124001" /><rect style="fill:#f3cc7d" id="rect87625" height="2.8469999" width="4.533" y="51.361" x="64.563004" /><rect style="fill:#80581e" id="rect87627" height="2.8469999" width="0.95899999" y="51.361" x="64.563004" /><rect style="fill:#533a14" id="rect87629" height="2.8469999" width="0.47999999" y="51.362" x="64.083" /></g></g><g id="g87631"><g id="g87633"><rect style="fill:#f3cc7d" id="rect87635" height="2.8469999" width="7.1989999" y="44.326" x="56.883999" /><rect style="fill:#80581e" id="rect87637" height="2.8469999" width="0.95899999" y="44.326" x="63.124001" /><rect style="fill:#f3cc7d" id="rect87639" height="2.8469999" width="4.533" y="44.325001" x="64.563004" /><rect style="fill:#80581e" id="rect87641" height="2.8469999" width="0.95899999" y="44.325001" x="64.563004" /><rect style="fill:#533a14" id="rect87643" height="2.8469999" width="0.47999999" y="44.326" x="64.083" /></g></g><g id="g87645"><g id="g87647"><rect style="fill:#f3cc7d" id="rect87649" height="2.8469999" width="7.1989999" y="37.291" x="56.883999" /><rect style="fill:#80581e" id="rect87651" height="2.8469999" width="0.95899999" y="37.291" x="63.124001" /><rect style="fill:#f3cc7d" id="rect87653" height="2.8469999" width="4.533" y="37.290001" x="64.563004" /><rect style="fill:#80581e" id="rect87655" height="2.8469999" width="0.95899999" y="37.290001" x="64.563004" /><rect style="fill:#533a14" id="rect87657" height="2.8469999" width="0.47999999" y="37.291" x="64.083" /></g></g><rect style="fill:#3d3d3d" id="rect87659" height="2.4820001" width="16.702999" y="70.823997" x="34.992001" /><rect style="fill:#3d3d3d" id="rect87661" height="2.484" width="16.702999" y="24.424" x="34.992001" /><g id="g87663"><g id="g87665"><polygon style="fill:#3d3d3d" id="polygon87667" points="1.249,24.424 1.249,35.706 15.207,35.706 15.207,62.881 1.249,62.881 1.249,73.307 22.14,73.307 22.14,24.424 " /></g></g><g id="g87669"><g id="g87671"><path style="fill:#3d3d3d" inkscape:connector-curvature="0" id="path87673" d="m 61.774,26.909 l 0,10.051 l 6.463,0 l 0,3.505 l -6.463,0 l 0,3.53 l 6.463,0 l 0,3.505 l -6.463,0 l 0,3.531 l 6.463,0 l 0,3.505 l -6.463,0 l 0,3.533 l 6.463,0 l 0,3.505 l -6.463,0 l 0,8.377 l 17.406,0 l 0,-43.042 l -17.406,0 z m 15.492,35.02 l -7.49,0 l 0,-0.709 l 7.49,0 l 0,0.709 z m 0,-3.504 l -7.49,0 l 0,-0.709 l 7.49,0 l 0,0.709 z m 0,-3.533 l -7.49,0 l 0,-0.709 l 7.49,0 l 0,0.709 z m 0,-3.505 l -7.49,0 l 0,-0.709 l 7.49,0 l 0,0.709 z m 0,-3.531 l -7.49,0 l 0,-0.709 l 7.49,0 l 0,0.709 z m 0,-3.506 l -7.49,0 l 0,-0.709 l 7.49,0 l 0,0.709 z m 0,-3.531 l -7.49,0 l 0,-0.709 l 7.49,0 l 0,0.709 z m 0,-3.505 l -7.49,0 l 0,-0.709 l 7.49,0 l 0,0.709 z" /></g></g><path style="opacity:0.2;fill:none;stroke:#ffffff;stroke-width:0.5;stroke-miterlimit:10" inkscape:connector-curvature="0" id="path87675" d="m 21.269,28.264 c -1.11,1.12 -5.38,9.221 -5.38,20.591 c 0,11.374 4.222,19.424 5.38,20.592" enable-background="new    " stroke-miterlimit="10" /><line style="fill:none;stroke:#333333;stroke-width:0.5;stroke-miterlimit:10" id="line87677" y2="70.441002" x2="15.207" y1="73.306999" x1="15.207" stroke-miterlimit="10" /><line style="fill:none;stroke:#333333;stroke-width:0.5;stroke-miterlimit:10" id="line87679" y2="24.424" x2="15.207" y1="26.917" x1="15.207" stroke-miterlimit="10" /><polygon style="opacity:0.5" id="polygon87681" points="20.587,69.873 9.688,69.873 1.882,62.881 1.249,62.881 9.688,70.441 20.587,70.441 " enable-background="new    " /><g style="opacity:0.5" id="g87683"><g id="g87685"><polygon id="polygon87687" points="20.587,27.386 20.587,26.917 12.438,26.917 7.188,35.706 7.735,35.706 12.704,27.386 " /></g></g><path style="opacity:0.5" inkscape:connector-curvature="0" id="path87689" d="m 64.354,63.126 c 0,1.887 1.528,3.43 3.399,3.43 l 14.322,0 c 0.182,0 0.354,-0.025 0.527,-0.053 l 0,1.715 c -0.174,0.027 -0.347,0.055 -0.527,0.055 l -14.32,0 c -1.871,0 -3.399,-1.543 -3.399,-3.432 l -0.002,-1.715 l 0,0 z" enable-background="new    " /><rect style="fill:#3d3d3d" id="rect87691" height="4.9260001" width="8.8380003" y="63.914001" x="76.601997" /><rect style="fill:#3d3d3d" id="rect87693" height="4.9250002" width="8.8380003" y="28.872999" x="76.601997" /><path style="fill:#4f4f4f" inkscape:connector-curvature="0" id="path87695" d="m 1.249,35.706 l 5.939,0 l 5.25,-8.789 l 8.148,0 l 0,1.348 c -1.109,1.12 -5.38,9.221 -5.38,20.591 c 0,11.374 4.223,19.424 5.38,20.592 l 0,0.992 l -10.898,0 L 1.249,62.882 l 0,10.427 l 19.338,0 l 2.977,0 l 14,0 l 0,-5.035 l 11.125,0 l 0,5.035 l 33.916,0 l 0,-5.09 c -0.174,0.027 -0.347,0.055 -0.527,0.055 l -14.323,0 c -1.871,0 -3.399,-1.543 -3.399,-3.432 l 0,-31.971 c 0,-1.887 1.528,-3.431 3.399,-3.431 l 14.322,0 c 0.182,0 0.354,0.025 0.527,0.055 l 0,-5.09 l -33.916,0 l 0,5.035 l -11.125,0 l 0,-5.035 l -15.25,0 l -1.727,0 l -19.337,0 l 0,11.301 z M 33.167,35.5 c 1.871,0 3.401,1.544 3.401,3.431 l 0,20.541 c 0,1.888 -1.531,3.431 -3.401,3.431 l -1.464,0 c -1.871,0 -3.4,-1.543 -3.4,-3.431 l 0,-20.543 c 0,-1.887 1.53,-3.431 3.4,-3.431 l 1.464,0.002 l 0,0 z" /><rect style="fill:#2b2b2b" id="rect87697" height="6.3439999" width="1.636" y="61.929001" x="74.966003" /><rect style="fill:#2b2b2b" id="rect87699" height="7.165" width="1.636" y="29.440001" x="74.966003" /></g><g id="_x32_x03" transform="matrix(0,1.25,-1.25,0,136.58424,-103.0867)"><g transform="matrix(0,1,-1,0,17.793,-3.52001)" id="g42237"><g id="g42239"><polygon points="37.939,-95.976 34.008,-95.976 30.668,-95.976 26.734,-95.976 25.223,-94.465 25.223,-90.534 26.734,-89.025 30.668,-89.025 34.008,-89.025 37.939,-89.025 39.453,-90.534 39.453,-94.465 " id="polygon42241" style="fill:#404040" /><polygon points="37.939,-88.794 34.008,-88.794 30.668,-88.794 26.734,-88.794 25.223,-87.285 25.223,-83.353 26.734,-81.84 30.668,-81.84 34.008,-81.84 37.939,-81.84 39.453,-83.353 39.453,-87.285 " id="polygon42243" style="fill:#404040" /><polygon points="37.939,-81.617 34.008,-81.617 30.668,-81.617 26.734,-81.617 25.223,-80.105 25.223,-76.172 26.734,-74.663 30.668,-74.663 34.008,-74.663 37.939,-74.663 39.453,-76.172 39.453,-80.105 " id="polygon42245" style="fill:#404040" /><polygon points="37.939,-95.976 34.008,-95.976 30.668,-95.976 26.734,-95.976 25.223,-94.465 25.223,-90.534 26.734,-89.025 30.668,-89.025 34.008,-89.025 37.939,-89.025 39.453,-90.534 39.453,-94.465 " id="polygon42247" style="fill:#404040" /><polygon points="37.939,-88.794 34.008,-88.794 30.668,-88.794 26.734,-88.794 25.223,-87.285 25.223,-83.353 26.734,-81.84 30.668,-81.84 34.008,-81.84 37.939,-81.84 39.453,-83.353 39.453,-87.285 " id="polygon42249" style="fill:#404040" /><polygon points="37.939,-81.617 34.008,-81.617 30.668,-81.617 26.734,-81.617 25.223,-80.105 25.223,-76.172 26.734,-74.663 30.668,-74.663 34.008,-74.663 37.939,-74.663 39.453,-76.172 39.453,-80.105 " id="polygon42251" style="fill:#404040" /><rect x="27.629999" y="-79.422997" transform="matrix(2.578893e-6,1,-1,2.578893e-6,-49.4937,-107.0538)" width="2.3" height="2.2980001" id="rect42253" style="fill:#8d8c8c" /><rect x="34.830002" y="-79.422997" transform="matrix(2.578893e-6,1,-1,2.578893e-6,-42.295,-114.2535)" width="2.299" height="2.2980001" id="rect42255" style="fill:#8d8c8c" /><rect x="27.631001" y="-86.620003" transform="matrix(2.578893e-6,1,-1,2.578893e-6,-56.6915,-114.2515)" width="2.299" height="2.2980001" id="rect42257" style="fill:#8d8c8c" /><rect x="34.830002" y="-86.621002" transform="matrix(2.578893e-6,1,-1,2.578893e-6,-49.4928,-121.4512)" width="2.2980001" height="2.2980001" id="rect42259" style="fill:#8d8c8c" /><rect x="27.632" y="-93.819" transform="matrix(2.578893e-6,1,-1,2.578893e-6,-63.8897,-121.4497)" width="2.2969999" height="2.2980001" id="rect42261" style="fill:#8d8c8c" /><rect x="34.830002" y="-93.819" transform="matrix(2.578893e-6,1,-1,2.578893e-6,-56.691,-128.6494)" width="2.2980001" height="2.2980001" id="rect42263" style="fill:#8d8455" /><rect x="35.389999" y="-93.263" transform="matrix(2.578893e-6,1,-1,2.578893e-6,-56.6881,-128.6514)" width="1.184" height="1.186" id="rect42265" style="fill:#8c8663" /><polygon points="34.831,-93.819 35.39,-93.26 36.571,-93.26 37.129,-93.819 " id="polygon42267" style="fill:#b8af82" /><polygon points="36.571,-92.079 36.571,-93.26 37.129,-93.819 37.129,-91.521 " id="polygon42269" style="fill:#80795b" /><polygon points="35.39,-92.079 36.571,-92.079 37.129,-91.521 34.831,-91.521 " id="polygon42271" style="fill:#5e5b43" /><polygon points="34.831,-93.819 35.39,-93.26 35.39,-92.079 34.831,-91.521 " id="polygon42273" style="fill:#9a916c" /><rect x="28.188999" y="-93.262001" transform="matrix(2.578893e-6,1,-1,2.578893e-6,-63.8897,-121.4507)" width="1.183" height="1.184" id="rect42275" style="fill:#8c8663" /><polygon points="27.632,-93.819 28.189,-93.26 29.371,-93.26 29.929,-93.819 " id="polygon42277" style="fill:#b8af82" /><polygon points="29.371,-92.079 29.371,-93.26 29.929,-93.819 29.929,-91.521 " id="polygon42279" style="fill:#80795b" /><polygon points="28.189,-92.079 29.371,-92.079 29.929,-91.521 27.632,-91.521 " id="polygon42281" style="fill:#5e5b43" /><polygon points="27.632,-93.819 28.189,-93.26 28.189,-92.079 27.632,-91.521 " id="polygon42283" style="fill:#9a916c" /><rect x="35.389" y="-86.064003" transform="matrix(2.578893e-6,1,-1,2.578893e-6,-49.4898,-121.4531)" width="1.186" height="1.186" id="rect42285" style="fill:#8c8663" /><polygon points="34.831,-86.62 35.39,-86.064 36.571,-86.064 37.129,-86.62 " id="polygon42287" style="fill:#b8af82" /><polygon points="36.571,-84.881 36.571,-86.064 37.129,-86.62 37.129,-84.323 " id="polygon42289" style="fill:#80795b" /><polygon points="35.39,-84.881 36.571,-84.881 37.129,-84.323 34.831,-84.323 " id="polygon42291" style="fill:#5e5b43" /><polygon points="34.831,-86.62 35.39,-86.064 35.39,-84.881 34.831,-84.323 " id="polygon42293" style="fill:#9a916c" /><rect x="28.188" y="-86.064003" transform="matrix(2.578893e-6,1,-1,2.578893e-6,-56.6915,-114.2525)" width="1.1849999" height="1.184" id="rect42295" style="fill:#8c8663" /><polygon points="27.632,-86.62 28.189,-86.064 29.371,-86.064 29.929,-86.62 " id="polygon42297" style="fill:#b8af82" /><polygon points="29.371,-84.881 29.371,-86.064 29.929,-86.62 29.929,-84.323 " id="polygon42299" style="fill:#80795b" /><polygon points="28.189,-84.881 29.371,-84.881 29.929,-84.323 27.632,-84.323 " id="polygon42301" style="fill:#5e5b43" /><polygon points="27.632,-86.62 28.189,-86.064 28.189,-84.881 27.632,-84.323 " id="polygon42303" style="fill:#9a916c" /><rect x="35.389" y="-78.863998" transform="matrix(2.578893e-6,1,-1,2.578893e-6,-42.2892,-114.2525)" width="1.187" height="1.186" id="rect42305" style="fill:#8c8663" /><polygon points="34.831,-79.422 35.39,-78.863 36.571,-78.863 37.129,-79.422 " id="polygon42307" style="fill:#b8af82" /><polygon points="36.571,-77.68 36.571,-78.863 37.129,-79.422 37.129,-77.124 " id="polygon42309" style="fill:#80795b" /><polygon points="35.39,-77.68 36.571,-77.68 37.129,-77.124 34.831,-77.124 " id="polygon42311" style="fill:#5e5b43" /><polygon points="34.831,-79.422 35.39,-78.863 35.39,-77.68 34.831,-77.124 " id="polygon42313" style="fill:#9a916c" /><rect x="28.187" y="-78.862999" transform="matrix(2.578893e-6,1,-1,2.578893e-6,-49.4903,-107.0513)" width="1.187" height="1.184" id="rect42315" style="fill:#8c8663" /><polygon points="27.632,-79.422 28.189,-78.863 29.371,-78.863 29.929,-79.422 " id="polygon42317" style="fill:#b8af82" /><polygon points="29.371,-77.68 29.371,-78.863 29.929,-79.422 29.929,-77.124 " id="polygon42319" style="fill:#80795b" /><polygon points="28.189,-77.68 29.371,-77.68 29.929,-77.124 27.632,-77.124 " id="polygon42321" style="fill:#5e5b43" /><polygon points="27.632,-79.422 28.189,-78.863 28.189,-77.68 27.632,-77.124 " id="polygon42323" style="fill:#9a916c" /></g></g></g><text xml:space="preserve" style="font-style:normal;font-variant:normal;font-weight:normal;font-stretch:normal;font-size:10px;line-height:125%;font-family:'Andale Mono';-inkscape-font-specification:'Andale Mono';letter-spacing:0px;word-spacing:0px;fill:#000000;fill-opacity:1;stroke:none;stroke-width:1px;stroke-linecap:butt;stroke-linejoin:miter;stroke-opacity:1" x="110.57143" y="97.022491" id="text92687" sodipodi:linespacing="125%"><tspan sodipodi:role="line" id="tspan92689" x="110.57143" y="97.022491">SIM900A</tspan></text>
<g id="g4500" transform="translate(-105.45993,82.125403)"><polygon transform="matrix(-1.25,0,0,-1.25,275.83962,-29.630715)" style="fill:#404040" id="polygon4287" points="37.939,-89.025 39.453,-90.534 39.453,-94.465 37.939,-95.976 34.008,-95.976 30.668,-95.976 26.734,-95.976 25.223,-94.465 25.223,-90.534 26.734,-89.025 30.668,-89.025 34.008,-89.025 " /><polygon transform="matrix(-1.25,0,0,-1.25,275.83962,-29.630715)" style="fill:#404040" id="polygon4293" points="37.939,-89.025 39.453,-90.534 39.453,-94.465 37.939,-95.976 34.008,-95.976 30.668,-95.976 26.734,-95.976 25.223,-94.465 25.223,-90.534 26.734,-89.025 30.668,-89.025 34.008,-89.025 " /><rect style="fill:#8d8c8c" id="rect4307" height="2.8725002" width="2.8712499" transform="matrix(-2.578893e-6,-1,1,-2.578893e-6,0,0)" y="238.42769" x="-87.642326" /><rect style="fill:#8d8455" id="rect4309" height="2.8725002" width="2.8725002" transform="matrix(-2.578893e-6,-1,1,-2.578893e-6,0,0)" y="229.42928" x="-87.644424" /><rect style="fill:#8c8663" id="rect4311" height="1.4825" width="1.48" transform="matrix(-2.578893e-6,-1,1,-2.578893e-6,0,0)" y="230.12065" x="-86.946922" /><polygon transform="matrix(-1.25,0,0,-1.25,275.83962,-29.630715)" style="fill:#b8af82" id="polygon4313" points="35.39,-93.26 36.571,-93.26 37.129,-93.819 34.831,-93.819 " /><polygon transform="matrix(-1.25,0,0,-1.25,275.83962,-29.630715)" style="fill:#80795b" id="polygon4315" points="36.571,-93.26 37.129,-93.819 37.129,-91.521 36.571,-92.079 " /><polygon transform="matrix(-1.25,0,0,-1.25,275.83962,-29.630715)" style="fill:#5e5b43" id="polygon4317" points="36.571,-92.079 37.129,-91.521 34.831,-91.521 35.39,-92.079 " /><polygon transform="matrix(-1.25,0,0,-1.25,275.83962,-29.630715)" style="fill:#9a916c" id="polygon4319" points="35.39,-93.26 35.39,-92.079 34.831,-91.521 34.831,-93.819 " /><rect style="fill:#8c8663" id="rect4321" height="1.48" width="1.47875" transform="matrix(-2.578893e-6,-1,1,-2.578893e-6,0,0)" y="239.12393" x="-86.947327" /><polygon transform="matrix(-1.25,0,0,-1.25,275.83962,-29.630715)" style="fill:#b8af82" id="polygon4323" points="28.189,-93.26 29.371,-93.26 29.929,-93.819 27.632,-93.819 " /><polygon transform="matrix(-1.25,0,0,-1.25,275.83962,-29.630715)" style="fill:#80795b" id="polygon4325" points="29.371,-93.26 29.929,-93.819 29.929,-91.521 29.371,-92.079 " /><polygon transform="matrix(-1.25,0,0,-1.25,275.83962,-29.630715)" style="fill:#5e5b43" id="polygon4327" points="29.371,-92.079 29.929,-91.521 27.632,-91.521 28.189,-92.079 " /><polygon transform="matrix(-1.25,0,0,-1.25,275.83962,-29.630715)" style="fill:#9a916c" id="polygon4329" points="28.189,-93.26 28.189,-92.079 27.632,-91.521 27.632,-93.819 " /></g><g transform="matrix(0.16291642,0,0,0.16291642,113.22025,12.297854)" id="g49028"><g id="g49030"><rect width="10.8333" y="61.555599" height="39.361099" id="rect49032" x="0" style="fill:#f7bd13" /><rect width="10.8333" y="61.555599" height="1.01389" id="rect49034" x="0" style="fill:#fce5a1" /><rect width="10.8333" y="100.917" height="1.7222199" id="rect49036" x="0" style="fill:#b98e0e" /><rect width="86.611099" x="37.402802" y="161.01401" height="1.7222199" id="rect49038" style="fill:#b98e0e" /><rect width="86.611099" x="37.402802" y="149.38901" height="11.9306" id="rect49040" style="fill:#f7bd13" /></g><rect width="147.26401" x="7.0694399" y="4.8333302" height="147.25" id="rect49042" style="fill:#e6e6e6" /><polygon points="8.65278,150.431 7.06944,152.014 154.333,152.014 154.333,4.97222 152.75,7.41667 152.75,150.625 " id="polygon49044" style="opacity:0.22000002;fill:#1d1d1b" /><polygon points="152.75,6.40278 154.319,4.80556 7.06944,4.80556 7.06944,152.069 8.65278,150.5 8.65278,6.40278 " id="polygon49046" style="opacity:0.42000002;fill:#ffffff" /><polygon points="124.014,153.667 124.014,156.444 154.333,156.444 154.333,150.889 7.06944,150.889 7.06944,156.444 37.4028,156.444 37.4028,153.667 " id="polygon49048" style="fill:#b3b3b3" /><rect width="86.611099" x="37.402802" y="153.66701" height="0.91666698" id="rect49050" style="fill:#b98e0e" /><rect width="41.152802" x="120.222" y="61.555599" height="39.361099" id="rect49052" style="fill:#f7bd13" /><rect width="41.208302" x="120.222" y="61.555599" height="1.01389" id="rect49054" style="fill:#fce5a1" /><rect width="32.555599" x="120.194" y="60.541698" height="1.01389" id="rect49056" style="opacity:0.22000002;fill:#1d1d1b" /><rect width="7.0416698" x="154.33299" y="100.917" height="1.7222199" id="rect49058" style="fill:#b98e0e" /><g id="g49060"><circle cx="80.708298" cy="78.458298" r="51.277802" id="circle49062" style="fill:#fad771" /><circle cx="80.708298" cy="79.555603" r="51.916698" id="circle49064" style="fill:#fee98c" /><circle cx="80.722198" cy="78.458298" r="50.166698" id="circle49066" style="fill:#ecb74d" /><g id="g49068"><path d="m 30.5556,80.0278 c 0,-27.7083 22.4583,-50.1528 50.1528,-50.1528 c 27.7222,0 50.1667,22.4583 50.1667,50.1528 l -1e-4,-1.5695 C 130.875,50.75 108.4306,28.3055 80.7083,28.3055 C 53,28.3056 30.5556,50.7639 30.5556,78.4583 l 0,1.5695 z" id="path49070" inkscape:connector-curvature="0" style="fill:#db7d00" /></g><g id="g49072"><g id="g49074"><circle cx="80.708298" cy="78.458298" r="14.6944" id="circle49076" style="fill:#fee068" /></g><rect width="29.388901" x="66" y="64.861099" height="13.5972" id="rect49078" style="fill:#fee068" /><circle cx="80.708298" cy="66.888901" r="14.6944" id="circle49080" style="fill:#ecc847" /><circle cx="80.708298" cy="63.763901" r="9.5694399" id="circle49082" style="fill:#fbc91a" /><g id="g49084" style="opacity:0.51000001"><path d="m 80.7083,73.3194 c 5.27778,0 9.55556,-4.29167 9.55556,-9.55556 l 5.125,3.13889 c 0,8.125 -6.56944,14.6944 -14.6944,14.6944 l -6e-5,-8.27773 z" id="path49086" inkscape:connector-curvature="0" style="opacity:0.16000001;fill:#1d1d1b" /><path d="m 80.7083,93.1667 c 8.125,0 14.6944,-6.56944 14.6944,-14.6944 l 1e-4,-11.5834 c 0,8.125 -6.56944,14.6944 -14.6944,14.6944 l -1e-4,11.5834 z" id="path49088" inkscape:connector-curvature="0" style="opacity:0.27000002;fill:#1d1d1b" /></g><path d="M 80.7083,52.1944 C 71.13886,52.1944 66,58.90273 66,66.9027 c 0,6.79167 14.7083,0 14.7083,0 c 0,0 -0.6389,-9.5138 0,-14.7083 z" id="path49090" inkscape:connector-curvature="0" style="opacity:0.25;fill:#ffffff" /></g><path d="m 29.4306,66.8889 c 0,28.3333 22.9583,51.2778 51.2778,51.2778 c 28.3333,0 51.2778,-22.9444 51.2778,-51.2778 l 0,11.5694 c 0,28.3333 -22.9444,51.2778 -51.2778,51.2778 c -28.3333,0 -51.2778,-22.9444 -51.2778,-51.2778 l 0,-11.5694 z" id="path49092" inkscape:connector-curvature="0" style="fill:#e8a00e" /><path d="m 31.2361,66.8889 c 0,-27.3333 22.1528,-49.4861 49.4861,-49.4861 c 27.3333,0 49.4861,22.1528 49.4861,49.4861 l 0,11.5694 c 0,-27.3333 -22.1528,-49.4861 -49.4861,-49.4861 c -27.3333,0 -49.4861,22.1528 -49.4861,49.4861 l 0,-11.5694 z" id="path49094" inkscape:connector-curvature="0" style="fill:#e8a00e" /><path d="m 80.7083,15.6111 c -28.3333,0 -51.2778,22.9583 -51.2778,51.2778 c 0,28.3333 22.9583,51.2778 51.2778,51.2778 c 28.3333,0 51.2778,-22.9444 51.2778,-51.2778 C 131.986,38.5694 109.042,15.6111 80.7083,15.6111 Z m 0,100.7639 c -27.3333,0 -49.4861,-22.1528 -49.4861,-49.4861 c 0,-27.3333 22.1528,-49.4861 49.4861,-49.4861 c 27.3333,0 49.4861,22.1528 49.4861,49.4861 c 0,27.3333 -22.1524,49.4861 -49.4861,49.4861 z" id="path49096" inkscape:connector-curvature="0" style="fill:#fee068" /><path d="m 31.2361,66.0972 c 0,-27.3333 22.1528,-49.4861 49.4861,-49.4861 c 27.3333,0 49.4861,22.1528 49.4861,49.4861 l 0,0.805556 c 0,-27.3333 -22.1528,-49.4861 -49.4861,-49.4861 c -27.3333,0 -49.4861,22.138944 -49.4861,49.472244 l 0,-0.7917 z" id="path49098" inkscape:connector-curvature="0" style="opacity:0.49000005;fill:#ffffff" /><path d="m 131.958,67.9444 c 0,28.3056 -22.9444,51.25 -51.25,51.25 c -28.3194,0 -51.25,-22.9444 -51.25,-51.25 l 0,-0.833333 c 0,28.3056 22.9444,51.250003 51.25,51.250003 c 28.3056,0 51.25,-22.944403 51.25,-51.250003 l 0,0.833333 z" id="path49100" inkscape:connector-curvature="0" style="opacity:0.12000002" /><path d="m 132.806,80 c 0,28.7778 -23.3333,52.0972 -52.0972,52.0972 C 51.931,132.0972 28.6116,108.7778 28.6116,80 l -5e-4,-0.8333 c 0,28.7639 23.3194,52.0972 52.0972,52.0972 c 28.7639,0 52.0972,-23.3333 52.0972,-52.0972 L 132.806,80 Z" id="path49102" inkscape:connector-curvature="0" style="opacity:0.12000002" /></g></g></svg>